<svg width="32" height="32" viewBox="0 0 32 32" fill="none" xmlns="http://www.w3.org/2000/svg">
<g clip-path="url(#clip0_635_78)">
<path d="M31.5625 16.0625C31.5625 18.2375 31.5187 20.4187 31.575 22.5937C31.6687 26.4437 29.25 29.4187 26.1687 30.7437C24.9312 31.275 23.6312 31.5562 22.2875 31.5562C18.0812 31.5625 13.8687 31.6187 9.66248 31.5375C6.49373 31.475 3.88748 30.15 2.01873 27.5375C1.03748 26.1625 0.568726 24.6 0.568726 22.9062C0.568726 18.425 0.568726 13.95 0.568726 9.46873C0.568726 5.81248 2.34998 3.25623 5.51248 1.59373C6.88748 0.874985 8.38123 0.568735 9.93748 0.562485C14.0187 0.562485 18.1062 0.537485 22.1875 0.574985C25.3562 0.599985 28 1.81248 29.95 4.36248C31.0375 5.78748 31.5625 7.42499 31.5625 9.22499C31.5625 11.5 31.5625 13.7812 31.5625 16.0625ZM2.87498 16.0625C2.87498 18.3562 2.87498 20.6437 2.87498 22.9375C2.87498 23.9625 3.11248 24.925 3.64373 25.7937C5.03748 28.075 7.14373 29.1875 9.75623 29.2312C13.95 29.2937 18.15 29.2562 22.35 29.2437C23.3812 29.2437 24.3812 29.0312 25.3125 28.5875C27.85 27.375 29.2687 25.4437 29.2562 22.5437C29.2312 18.1062 29.25 13.6687 29.25 9.23123C29.25 7.97498 28.8937 6.82498 28.15 5.81248C26.7125 3.86873 24.725 2.91248 22.35 2.88748C18.1625 2.83748 13.975 2.86873 9.78748 2.87498C8.89373 2.87498 8.03123 3.05623 7.19373 3.36873C4.89373 4.22498 2.75623 6.39373 2.85623 9.58748C2.93123 11.75 2.87498 13.9062 2.87498 16.0625Z" fill="white"/>
<path d="M16.1 22.6875C12.0688 22.6875 8.81876 19.475 8.81251 15.475C8.80626 11.5375 12.0813 8.31251 16.0875 8.31251C20.1063 8.30626 23.3688 11.525 23.375 15.4938C23.375 19.4563 20.1188 22.6813 16.1 22.6875ZM16.1 20.375C18.8438 20.375 21.0688 18.1813 21.0625 15.4813C21.0563 12.8063 18.8313 10.6188 16.1 10.6188C13.3563 10.6188 11.1188 12.8 11.1188 15.4938C11.125 18.1938 13.3563 20.3813 16.1 20.375Z" fill="white"/>
<path d="M24.2188 6.125C25.0625 6.125 25.75 6.84375 25.75 7.725C25.7438 8.60625 25.05 9.31875 24.2063 9.3125C23.375 9.30625 22.6938 8.59375 22.6938 7.73125C22.6875 6.85 23.375 6.125 24.2188 6.125Z" fill="white"/>
</g>
<defs>
<clipPath id="clip0_635_78">
<rect width="32" height="32" fill="white"/>
</clipPath>
</defs>
</svg>
