<svg width="133" height="125" viewBox="0 0 133 125" fill="none" xmlns="http://www.w3.org/2000/svg">
<path d="M33.084 77.3768C32.6553 76.5808 32.4198 75.695 32.3967 74.7912C32.3735 73.8873 32.5634 72.9907 32.9509 72.1738C33.0698 71.9125 33.245 71.6806 33.464 71.495C33.683 71.3093 33.9404 71.1743 34.2176 71.0997L46.1156 68.9629L46.3494 79.9146L34.3935 78.3864C34.1144 78.3249 33.8523 78.2025 33.6259 78.028C33.3996 77.8534 33.2145 77.6311 33.084 77.3768Z" fill="#F5F5F5"/>
<path d="M36.3082 70.6868C36.0261 70.7819 35.7662 70.9332 35.5444 71.1318C35.3226 71.3304 35.1434 71.5719 35.0178 71.8418C34.5896 72.7441 34.3797 73.7345 34.4052 74.733C34.4306 75.7314 34.6906 76.7098 35.1642 77.5891C35.3029 77.8456 35.4909 78.0721 35.7174 78.2557C35.9439 78.4393 36.2044 78.5763 36.4839 78.659L35.3189 78.5062L34.3771 78.3699C34.1025 78.3079 33.8446 78.187 33.6214 78.0155C33.3982 77.844 33.2149 77.6261 33.0843 77.3767C32.6555 76.5807 32.4201 75.6949 32.3969 74.7911C32.3738 73.8872 32.5637 72.9906 32.9512 72.1737C33.0701 71.9123 33.2453 71.6805 33.4643 71.4949C33.6833 71.3092 33.9406 71.1742 34.2179 71.0996L35.2183 70.9072L36.3082 70.6868Z" fill="#3D68B2"/>
<path opacity="0.1" d="M32.5569 76.0682L46.2539 75.7199L46.3493 79.9144L34.3935 78.3862C34.1143 78.3246 33.8523 78.2022 33.6259 78.0277C33.3995 77.8532 33.2145 77.6308 33.084 77.3765C32.8412 76.9705 32.6634 76.5291 32.5569 76.0682Z" fill="#455A64"/>
<path d="M44.1778 70.5934C43.5958 71.8176 43.3104 73.1617 43.3446 74.5168C43.3787 75.8719 43.7316 77.1998 44.3746 78.3932C45.6719 80.515 47.6883 80.4601 48.8875 78.296C49.4695 77.0718 49.7549 75.7277 49.7208 74.3726C49.6866 73.0176 49.3337 71.6896 48.6907 70.4963C47.3697 68.3357 45.3533 68.3905 44.1778 70.5934Z" fill="#E0E0E0"/>
<path d="M30.5367 66.4617C30.1088 65.6662 29.874 64.7812 29.8514 63.8781C29.8288 62.9751 30.019 62.0794 30.4066 61.2635C30.5245 61.0015 30.6994 60.7691 30.9185 60.5833C31.1377 60.3975 31.3955 60.263 31.6733 60.1895L43.5712 58.0527L43.8131 69.0394L31.8521 67.481C31.5713 67.4185 31.3078 67.2947 31.0805 67.1185C30.8531 66.9423 30.6674 66.718 30.5367 66.4617Z" fill="#F5F5F5"/>
<path d="M33.7754 59.7961C33.498 59.8902 33.2427 60.0399 33.025 60.2359C32.8073 60.4319 32.6319 60.6702 32.5093 60.9363C32.0788 61.8374 31.8671 62.8273 31.8912 63.8256C31.9153 64.8239 32.1745 65.8025 32.6479 66.6817C32.7861 66.9385 32.974 67.1654 33.2005 67.349C33.427 67.5327 33.6878 67.6695 33.9676 67.7516L32.8056 67.6036L31.8637 67.4673C31.5863 67.4011 31.3268 67.2748 31.1034 67.0975C30.88 66.9202 30.6982 66.6961 30.5707 66.441C30.1427 65.6455 29.9079 64.7605 29.8853 63.8575C29.8627 62.9545 30.0529 62.0588 30.4405 61.2428C30.5584 60.9808 30.7333 60.7485 30.9525 60.5627C31.1716 60.3768 31.4295 60.2423 31.7072 60.1688L32.7047 59.9715L33.7754 59.7961Z" fill="#3D68B2"/>
<path opacity="0.1" d="M30.0261 65.1698L43.7212 64.8293L43.8137 69.0189L31.8519 67.481C31.5745 67.4147 31.315 67.2885 31.0916 67.1112C30.8682 66.9339 30.6864 66.7098 30.5588 66.4547C30.3171 66.0559 30.1375 65.6226 30.0261 65.1698Z" fill="#455A64"/>
<path d="M44.1187 69.0299C42.3599 69.0742 40.8721 66.6425 40.7954 63.5984C40.7187 60.5544 42.0822 58.0507 43.8409 58.0064C45.5997 57.9621 47.0876 60.3939 47.1643 63.438C47.2409 66.482 45.8774 68.9856 44.1187 69.0299Z" fill="#E0E0E0"/>
<path d="M107.099 59.6012L88.5853 53.7037L73.4201 34.9967L66.0779 35.1799L52.036 60.99L107.099 59.6012Z" fill="#3D68B2"/>
<path opacity="0.6" d="M107.099 59.6012L88.5853 53.7037L73.4201 34.9967L66.0779 35.1799L52.036 60.99L107.099 59.6012Z" fill="white"/>
<path d="M66.0777 35.1799L73.4199 34.9967L59.375 60.802L52.0358 60.99L66.0777 35.1799Z" fill="#3D68B2"/>
<path opacity="0.3" d="M66.0777 35.1799L73.4199 34.9967L59.375 60.802L52.0358 60.99L66.0777 35.1799Z" fill="#455A64"/>
<path d="M39.0792 58.0969C40.3088 55.841 41.8718 54.446 43.5287 53.9121C43.9442 53.7722 44.3778 53.6931 44.816 53.6774L45.1003 53.6633L89.2086 52.557C96.4511 52.3762 103.636 53.8907 110.189 56.9799L130.417 66.5081L130.12 70.736L112.431 77.9979C106.924 80.2635 101.049 81.5009 95.0963 81.6487L45.5134 82.9011C43.7439 82.8916 41.9663 81.9219 40.4545 80.0044C40.1496 79.6118 39.8663 79.203 39.6057 78.7796C36.1657 73.1427 35.9315 63.8884 39.0792 58.0969Z" fill="#3D68B2"/>
<path opacity="0.9" d="M39.0792 58.0969C40.3088 55.841 41.8718 54.446 43.5287 53.9121C43.9442 53.7722 44.3778 53.6931 44.816 53.6774L45.1003 53.6633L89.2086 52.557C96.4511 52.3762 103.636 53.8907 110.189 56.9799L130.417 66.5081L130.12 70.736L112.431 77.9979C106.924 80.2635 101.049 81.5009 95.0963 81.6487L45.5134 82.9011C43.7439 82.8916 41.9663 81.9219 40.4545 80.0044C40.1496 79.6118 39.8663 79.203 39.6057 78.7796C36.1657 73.1427 35.9315 63.8884 39.0792 58.0969Z" fill="white"/>
<path d="M51.1807 82.744C49.4112 82.7344 47.6336 81.7648 46.1218 79.8473C45.8169 79.4547 45.5336 79.0458 45.2731 78.6225C41.8342 72.9982 41.5999 63.7438 44.7505 57.9573C45.9772 55.6965 47.5353 54.3045 49.1922 53.7706C49.6075 53.6296 50.0413 53.5505 50.4796 53.5358L44.8131 53.6728C44.3748 53.6885 43.9412 53.7676 43.5257 53.9076C41.8591 54.4474 40.3058 55.8364 39.0762 58.0924C35.9528 63.869 36.1628 73.1381 39.6017 78.7624C39.8622 79.1858 40.1455 79.5946 40.4504 79.9872C41.9682 81.9144 43.7457 82.8841 45.5093 82.8839L51.1807 82.744Z" fill="#3D68B2"/>
<path d="M125.41 65.6562C125.625 65.2162 125.971 64.8536 126.4 64.6186L128.681 65.6931L130.42 66.5131C130.789 66.6882 131.105 66.9595 131.333 67.2987C131.56 67.6378 131.693 68.0322 131.715 68.4402C131.738 68.8481 131.65 69.2547 131.461 69.6169C131.272 69.9791 130.988 70.2835 130.641 70.4982C130.475 70.5957 130.299 70.6724 130.115 70.7265L128.606 71.3498L126.566 72.1839C126.249 72.0379 125.974 71.8153 125.764 71.5362C125.699 71.4296 125.628 71.3133 125.554 71.1922C125.097 70.3455 124.846 69.4032 124.821 68.4414C124.796 67.4796 124.998 66.5254 125.41 65.6562Z" fill="#3D68B2"/>
<path opacity="0.6" d="M93.3749 61.5371C86.8919 61.6342 55.7741 62.4448 37.364 62.9329C37.6957 61.2488 38.2702 59.6219 39.0696 58.103C40.2992 55.8471 41.8622 54.4521 43.5191 53.9182C43.9347 53.7782 44.3683 53.6992 44.8065 53.6835L45.0907 53.6694L89.199 52.5631C96.4415 52.3822 103.626 53.8968 110.179 56.986L129.705 66.1714L130.42 66.5131C130.825 66.7012 131.166 67.0046 131.399 67.3852C131.689 67.8542 131.793 68.4137 131.694 68.9555C131.386 66.2752 119.348 65.9289 111.829 64.3431C104.311 62.7574 97.0224 61.4832 93.3749 61.5371Z" fill="white"/>
<path d="M104.736 69.4189C104.385 65.7739 105.012 62.1625 106.46 59.5133C107.077 58.3034 107.99 57.2691 109.114 56.5063C109.472 56.6669 109.833 56.8119 110.189 56.9803L118.601 60.9416L118.043 61.216C117.974 61.2515 117.908 61.292 117.845 61.3374C117.229 61.7511 116.732 62.3168 116.4 62.9797C115.559 64.6928 115.186 66.5971 115.316 68.5007L115.35 69.2522L104.816 70.2022L104.736 69.4189Z" fill="#3D68B2"/>
<path d="M107.147 59.8853C107.763 58.6236 108.754 57.5831 109.984 56.906L117.7 60.5137C116.837 60.9837 116.142 61.7112 115.712 62.5949C114.797 64.4329 114.389 66.4814 114.529 68.5296L105.515 69.3422C105.192 66.0057 105.725 62.4915 107.147 59.8853Z" fill="#455A64"/>
<path opacity="0.1" d="M107.147 59.8853C107.763 58.6236 108.754 57.5831 109.984 56.906L117.7 60.5137C117.398 60.6678 117.119 60.8632 116.871 61.0943C115.95 60.8186 114.799 60.1777 113.961 60.9297C112.991 61.8026 112.823 63.4225 112.276 64.5295C112.141 64.8302 111.946 65.1 111.703 65.322C111.46 65.5441 111.173 65.7136 110.862 65.8199C110.266 65.9052 109.66 65.8685 109.079 65.7122C108.789 65.6363 108.485 65.6299 108.192 65.6934C107.899 65.7569 107.625 65.8886 107.392 66.0778C106.939 66.5549 107.045 67.2084 107.113 67.799C107.142 68.27 107.205 68.7383 107.304 69.1997L105.498 69.3589C105.192 66.0057 105.725 62.4915 107.147 59.8853Z" fill="white"/>
<path opacity="0.05" d="M112.129 60.3266L112.11 60.3716C111.848 60.9354 111.554 61.4838 111.23 62.014C110.962 62.4574 110.543 62.9468 110.033 62.8528C109.523 62.7587 109.246 62.1426 108.749 62.1136C108.55 62.1179 108.356 62.1786 108.19 62.2887C107.406 62.7824 106.748 63.4533 106.269 64.2475C105.791 65.0417 105.505 65.937 105.436 66.8615C105.462 64.43 106.049 62.0373 107.15 59.8697C107.767 58.608 108.758 57.5674 109.988 56.8904L114.506 59.0125C113.277 58.9059 112.658 59.2442 112.129 60.3266Z" fill="white"/>
<path opacity="0.15" d="M40.4534 79.992C40.1485 79.5994 39.8652 79.1905 39.6047 78.7672C39.3068 78.2664 39.0356 77.7502 38.7922 77.2207C54.0945 76.8093 91.4355 75.8142 98.3247 75.7283C107.037 75.6193 126.067 71.4109 130.231 69.1314C131.232 68.5923 131.118 67.6437 130.386 66.5007L130.401 66.525C130.768 66.6991 131.082 66.9688 131.31 67.3058C131.538 67.6428 131.671 68.0347 131.695 68.4407C131.72 68.8467 131.635 69.2518 131.449 69.6137C131.264 69.9756 130.984 70.2811 130.64 70.4982C130.475 70.5957 130.299 70.6724 130.114 70.7265L112.425 77.9884C106.918 80.254 101.043 81.4914 95.0904 81.6392L45.5075 82.8916C43.7487 82.8888 41.9741 81.924 40.4534 79.992Z" fill="#3D68B2"/>
<path opacity="0.6" d="M130.115 70.7266L128.606 71.3498L126.566 72.1839C126.249 72.038 125.974 71.8154 125.764 71.5362C125.699 71.4296 125.628 71.3134 125.554 71.1922C125.48 71.0711 125.436 70.9985 125.376 70.9016C127.042 70.4589 128.664 69.8658 130.223 69.1296C131.224 68.5904 131.11 67.6419 130.378 66.4989L130.393 66.5231C130.761 66.6964 131.077 66.9654 131.305 67.3022C131.534 67.639 131.668 68.031 131.693 68.4374C131.719 68.8437 131.634 69.2494 131.449 69.612C131.264 69.9745 130.985 70.2806 130.641 70.4982C130.491 70.5875 130.331 70.6584 130.164 70.7096L130.115 70.7266Z" fill="#455A64"/>
<path d="M29.2115 102.925L43.2534 77.1152L98.3246 75.7283L73.7438 84.3021L37.5103 104.307L30.1682 104.49L29.2115 102.925Z" fill="#3D68B2"/>
<path opacity="0.6" d="M29.2115 102.925L43.2534 77.1152L98.3246 75.7283L73.7438 84.3021L37.5103 104.307L30.1682 104.49L29.2115 102.925Z" fill="white"/>
<path d="M73.744 84.3022L72.7872 82.7375L98.3248 75.7284L73.744 84.3022Z" fill="#3D68B2"/>
<path d="M72.7873 82.7374L36.5509 102.737L37.5106 104.307L73.7441 84.3022L72.7873 82.7374Z" fill="#3D68B2"/>
<path opacity="0.3" d="M72.7873 82.7374L36.5509 102.737L37.5106 104.307L73.7441 84.3022L72.7873 82.7374Z" fill="white"/>
<path d="M50.5956 76.932L36.5508 102.737L29.2116 102.925L43.2535 77.1151L50.5956 76.932Z" fill="#3D68B2"/>
<path opacity="0.3" d="M50.5956 76.932L36.5508 102.737L29.2116 102.925L43.2535 77.1151L50.5956 76.932Z" fill="#455A64"/>
<path d="M29.2117 102.925L36.5509 102.737L37.5106 104.307L30.1685 104.49L29.2117 102.925Z" fill="#3D68B2"/>
<path opacity="0.5" d="M29.2117 102.925L36.5509 102.737L37.5106 104.307L30.1685 104.49L29.2117 102.925Z" fill="#455A64"/>
<path d="M23.0594 41.0508L26.7319 40.9616L54.6669 56.1602L53.7892 57.7617L39.0621 58.1342L22.1817 42.6523L23.0594 41.0508Z" fill="#3D68B2"/>
<path d="M53.7892 57.7617L39.0621 58.1342L22.1817 42.6523L25.8513 42.5583L53.7892 57.7617Z" fill="#3D68B2"/>
<path opacity="0.5" d="M26.7317 40.9617L25.8511 42.5583L22.1815 42.6523L23.0591 41.0508L26.7317 40.9617Z" fill="white"/>
<path opacity="0.6" d="M25.8513 42.5583L53.7892 57.7617L39.0621 58.1342L22.1817 42.6523L25.8513 42.5583Z" fill="#455A64"/>
<path opacity="0.8" d="M31.1072 64.4558C31.0442 61.9253 29.5155 58.1081 25.0219 57.9538C20.5283 57.7996 18.7029 60.5396 18.7029 60.5396C18.7029 60.5396 20.5016 60.771 21.0364 61.7218C21.0364 61.7218 15.6969 60.7936 13.8785 63.6758C13.8785 63.6758 16.6498 63.4189 16.9163 64.5405C17.1828 65.662 12.4361 66.215 10.1008 65.2802C10.1008 65.2802 10.8379 66.8993 13.4789 67.8335C16.12 68.7677 20.2431 68.2833 20.2431 68.2833C19.9514 68.6793 19.5753 69.0055 19.142 69.2381C18.7087 69.4708 18.2291 69.6042 17.7379 69.6287C17.7379 69.6287 21.6863 71.5472 25.3128 71.1867C26.9614 71.0314 28.4858 70.2437 29.5661 68.9887C30.6465 67.7338 31.1988 66.1092 31.1072 64.4558Z" fill="#3D68B2"/>
<path opacity="0.8" d="M28.9466 64.4923C28.8882 62.1654 25.6343 60.6208 22.485 62.9591C22.485 62.9591 24.6457 63.0423 24.7119 64.2064C24.7781 65.3706 20.6257 65.6001 19.6879 65.4813C19.6879 65.4813 22.383 67.5272 25.1724 67.4522C27.1743 67.4063 29.0058 66.6791 28.9466 64.4923Z" fill="white"/>
<path opacity="0.8" d="M33.6067 74.7809C33.6698 77.3114 32.3448 81.1964 27.8538 81.5796C23.3627 81.9629 21.4163 79.3129 21.4163 79.3129C21.4163 79.3129 23.2072 78.9765 23.6861 78.0181C23.6861 78.0181 18.4198 79.2016 16.4421 76.4242C16.4421 76.4242 19.2175 76.5442 19.434 75.4069C19.6504 74.2696 14.8712 73.9638 12.5856 75.0152C12.5856 75.0152 13.2398 73.364 15.832 72.2915C18.4241 71.2191 23.0042 71.9394 23.0042 71.9394C22.7745 71.4794 22.4493 71.0738 22.0502 70.7496C21.6512 70.4255 21.1875 70.1903 20.6902 70.0597C22.7609 68.8889 25.1063 68.2911 27.4848 68.3279C29.1423 68.4012 30.7067 69.1147 31.8486 70.3184C32.9905 71.522 33.6208 73.1218 33.6067 74.7809Z" fill="#3D68B2"/>
<path opacity="0.8" d="M31.4746 74.8533C31.5301 77.1755 28.3599 78.8809 25.0978 76.7024C25.0978 76.7024 27.2533 76.5159 27.2552 75.3434C27.2571 74.1709 23.1046 74.1608 22.176 74.3293C22.176 74.3293 24.7676 72.1457 27.5551 72.0786C29.5442 72.0337 31.4057 72.6725 31.4746 74.8533Z" fill="white"/>
</svg>
