<svg width="32" height="32" viewBox="0 0 32 32" fill="none" xmlns="http://www.w3.org/2000/svg">
<g clip-path="url(#clip0_635_86)">
<path d="M17.88 16.0001L23.6134 10.2801C23.8644 10.029 24.0055 9.68849 24.0055 9.33342C24.0055 8.97835 23.8644 8.63782 23.6134 8.38675C23.3623 8.13568 23.0218 7.99463 22.6667 7.99463C22.3116 7.99463 21.9711 8.13568 21.72 8.38675L16 14.1201L10.28 8.38675C10.029 8.13568 9.68844 7.99463 9.33337 7.99463C8.97831 7.99463 8.63778 8.13568 8.38671 8.38675C8.13564 8.63782 7.99459 8.97835 7.99459 9.33342C7.99459 9.68849 8.13564 10.029 8.38671 10.2801L14.12 16.0001L8.38671 21.7201C8.26174 21.844 8.16254 21.9915 8.09485 22.154C8.02716 22.3165 7.99231 22.4907 7.99231 22.6667C7.99231 22.8428 8.02716 23.017 8.09485 23.1795C8.16254 23.342 8.26174 23.4895 8.38671 23.6134C8.51066 23.7384 8.65813 23.8376 8.8206 23.9053C8.98308 23.973 9.15736 24.0078 9.33337 24.0078C9.50939 24.0078 9.68366 23.973 9.84614 23.9053C10.0086 23.8376 10.1561 23.7384 10.28 23.6134L16 17.8801L21.72 23.6134C21.844 23.7384 21.9915 23.8376 22.1539 23.9053C22.3164 23.973 22.4907 24.0078 22.6667 24.0078C22.8427 24.0078 23.017 23.973 23.1795 23.9053C23.342 23.8376 23.4894 23.7384 23.6134 23.6134C23.7383 23.4895 23.8375 23.342 23.9052 23.1795C23.9729 23.017 24.0078 22.8428 24.0078 22.6667C24.0078 22.4907 23.9729 22.3165 23.9052 22.154C23.8375 21.9915 23.7383 21.844 23.6134 21.7201L17.88 16.0001Z" fill="white"/>
</g>
<defs>
<clipPath id="clip0_635_86">
<rect width="32" height="32" fill="white"/>
</clipPath>
</defs>
</svg>
